<?xml version="1.0" encoding="utf-8"?>
<!-- Generator: Adobe Illustrator 21.0.0, SVG Export Plug-In . SVG Version: 6.00 Build 0)  -->
<svg version="1.1" id="Lager_1" xmlns="http://www.w3.org/2000/svg" xmlns:xlink="http://www.w3.org/1999/xlink" x="0px" y="0px"
	 viewBox="0 0 320 49.1" style="enable-background:new 0 0 320 49.1;" xml:space="preserve">
<style type="text/css">
	.st0{fill:#242423;}
</style>
<g>
	<g>
		<path class="st0" d="M109.4,48.1h-9.7V0.7h9.7c4.1,0,7.7,2.1,7.7,8.3v8.6c0,3.1-1.1,5.3-3.7,6.3c2.7,1.1,3.8,3.3,3.8,6.3v9.5
			C117.1,46,113.4,48.1,109.4,48.1z M111,9.2c0-1.9-0.7-2.7-2.1-2.7h-3v15h2.7c1.5,0,2.3-0.9,2.3-2.8V9.2z M111.1,29.6
			c0-1.9-0.9-2.9-2.3-2.9h-2.8v15.7h3.1c1.4,0,2.1-0.9,2.1-2.7V29.6z"/>
		<path class="st0" d="M137.2,48.1l-0.9-9.2h-5.5l-1.1,9.2h-5.7l6.3-47.4h6.8l6.3,47.4H137.2z M133.8,12.8l-2.3,20.4h4.1L133.8,12.8
			z"/>
		<path class="st0" d="M160.5,48.8c-5.3,0-9.3-4.1-9.3-9.7V9.7c0-5.6,3.9-9.7,9.3-9.7c5.5,0,8.6,4,8.6,9.5v7.9h-5.4V9.2
			c0-1.8-1-3.1-3.1-3.1s-3.1,1.4-3.1,3.1v30.5c0,1.8,1,3.1,3.1,3.1s3.1-1.4,3.1-3.1v-8.3h5.4v8C169.1,44.9,166,48.8,160.5,48.8z"/>
		<path class="st0" d="M191.1,48.1l-3.9-19.9l-2.1,7.3v12.6h-6.2V0.7h6.2v22.8l6.1-22.8h6l-5.9,20.2l6.1,27.2H191.1z"/>
		<path class="st0" d="M206.3,48.1V0.7h15.2v5.8h-9v14.3h7v6h-7v15.4h9v5.9H206.3z"/>
	</g>
	<g>
		<g>
			<path class="st0" d="M232.3,48.2V34h2.6v14.2H232.3z"/>
			<path class="st0" d="M251.4,48.2l-0.4-1.1c-0.4,0.9-1.4,1.4-2.4,1.4c-1.9,0-3.4-1.5-3.4-3.9V32.3c0-2.2,1.6-3.9,3.8-3.9
				c2.2,0,3.6,1.7,3.6,3.9v3.1h-2.4v-3.4c0-0.7-0.4-1.2-1.2-1.2c-0.8,0-1.2,0.6-1.2,1.2v12.8c0,0.7,0.4,1.3,1.2,1.3
				c0.8,0,1.2-0.6,1.2-1.3v-4.2h-1.1v-2.1h3.7v9.7H251.4z"/>
			<path class="st0" d="M268.4,48.2V28.6h6.3v2.4h-3.7V37h2.9v2.3h-2.9v6.5h3.7v2.4H268.4z"/>
			<path class="st0" d="M284.5,48.2l-2.8-9.4l-0.8-2.9v12.3h-2.3V28.6h2.4l2.5,9.4l0.7,2.9V28.6h2.3v19.6H284.5z"/>
			<path class="st0" d="M294.1,48.5c-2.3,0-3.7-1.5-3.7-4v-2.1h2.4v2.2c0,1,0.4,1.6,1.3,1.6c0.9,0,1.4-0.6,1.4-1.6
				c0-1.8-0.7-3.3-2.1-5.3c-1.3-1.8-2.8-4.4-2.8-6.7c0-2.5,1.2-4.4,3.8-4.4c2.1,0,3.5,1.5,3.5,4v2.2h-2.3v-2.3c0-1-0.4-1.6-1.2-1.6
				c-0.7,0-1.3,0.5-1.3,1.4c0,2.2,0.7,3.2,2.2,5.4c1.5,2.2,2.7,4.4,2.7,6.7C297.9,47.3,296,48.5,294.1,48.5z"/>
			<path class="st0" d="M301.8,48.2V28.6h6.3v2.4h-3.7V37h3v2.3h-3v6.5h3.7v2.4H301.8z"/>
			<path class="st0" d="M318,48.2l-2.8-9.4l-0.8-2.9v12.3h-2.3V28.6h2.4L317,38l0.7,2.9V28.6h2.3v19.6H318z"/>
			
				<rect x="232.1" y="28.3" transform="matrix(-1 -1.224647e-16 1.224647e-16 -1 467.2195 59.5953)" class="st0" width="3" height="3.1"/>
		</g>
		<g>
			<path class="st0" d="M262.8,48.3c-0.9,0-1.3-1.2-1.3-2.6V41c0-0.7-0.4-1.2-1-1.2h-1.1v8.4h-2.6V28.6h4c1.7,0,3.2,0.9,3.2,3.5v4.1
				c0,1.2-0.5,2-1.5,2.5c1,0.5,1.6,1.4,1.6,2.5v4.4c0,0.9,0.1,1.5,0.4,2v0.7H262.8z M261.3,32.1c0-0.8-0.3-1.1-0.8-1.1h-1.2v6.6h1.1
				c0.6,0,0.9-0.4,0.9-1.2V32.1z"/>
		</g>
	</g>
	<g>
		<g>
			<path class="st0" d="M3.6,48.6c-2.1,0-3.6-1.5-3.6-3.8v-4.3h2.4v4.4c0,0.8,0.4,1.2,1.1,1.2s1.1-0.4,1.1-1.2V28.7h2.6v16
				C7.1,47.1,5.8,48.6,3.6,48.6z"/>
			<path class="st0" d="M15,48.6c-2.2,0-3.8-1.6-3.8-4V32.4c0-2.3,1.6-4,3.8-4s3.8,1.7,3.8,4v12.2C18.7,47,17.2,48.6,15,48.6z
				 M16.2,32.2c0-0.7-0.4-1.3-1.2-1.3s-1.2,0.5-1.2,1.3v12.6c0,0.8,0.4,1.3,1.2,1.3s1.2-0.5,1.2-1.3V32.2z"/>
			<path class="st0" d="M28.2,48.3v-8.4h-2.5v8.4h-2.6V28.7h2.6v8.7h2.5v-8.7h2.6v19.6H28.2z"/>
			<path class="st0" d="M45.3,48.6c-2.1,0-3.6-1.5-3.6-3.8v-4.3h2.4v4.4c0,0.8,0.4,1.2,1.1,1.2c0.7,0,1.1-0.4,1.1-1.2V28.7h2.6v16
				C48.9,47.1,47.5,48.6,45.3,48.6z"/>
			<path class="st0" d="M60,30.5c0.3,0.5,0.4,1.2,0.4,1.9v12.2c0,2.4-1.6,4-3.8,4c-0.9,0-1.8-0.3-2.4-0.8l-0.5,1.4l-1.2-0.5
				c0,0,0.7-2.1,0.7-2.1c-0.3-0.6-0.4-1.2-0.4-1.9V32.4c0-2.3,1.6-4,3.8-4c0.9,0,1.8,0.3,2.4,0.8c0,0,0.5-1.4,0.5-1.4l1.2,0.5
				L60,30.5z M57.8,32.2c0-0.7-0.4-1.3-1.2-1.3c-0.8,0-1.2,0.5-1.2,1.3v7.7l2.4-7.1V32.2z M57.8,37c0,0-2.4,7.1-2.4,7.1v0.8
				c0,0.8,0.4,1.3,1.2,1.3c0.8,0,1.2-0.5,1.2-1.3V37z"/>
			<path class="st0" d="M82,48.3l-0.4-1.1c-0.4,0.9-1.4,1.4-2.4,1.4c-1.9,0-3.4-1.5-3.4-3.9V32.4c0-2.2,1.6-3.9,3.8-3.9
				c2.2,0,3.6,1.7,3.6,3.9v3.1h-2.4v-3.4c0-0.7-0.4-1.2-1.2-1.2c-0.8,0-1.2,0.6-1.2,1.2V45c0,0.7,0.4,1.3,1.2,1.3
				c0.8,0,1.2-0.6,1.2-1.3v-4.2h-1.1v-2.1h3.7v9.7H82z"/>
			
				<rect x="34.4" y="45.3" transform="matrix(-1 -1.224647e-16 1.224647e-16 -1 71.3299 93.5902)" class="st0" width="2.6" height="3"/>
			
				<rect x="86.7" y="45.3" transform="matrix(-1 -1.224647e-16 1.224647e-16 -1 176.0328 93.5902)" class="st0" width="2.6" height="3"/>
		</g>
		<g>
			<path class="st0" d="M70.5,48.4c-0.9,0-1.3-1.2-1.3-2.6v-4.7c0-0.7-0.4-1.2-1-1.2H67v8.4h-2.6V28.7h4c1.7,0,3.2,0.9,3.2,3.5v4.1
				c0,1.2-0.5,2-1.5,2.5c1,0.5,1.6,1.4,1.6,2.5v4.4c0,0.9,0.1,1.5,0.4,2v0.7H70.5z M69.1,32.2c0-0.8-0.3-1.1-0.8-1.1H67v6.6h1.1
				c0.6,0,0.9-0.4,0.9-1.2V32.2z"/>
		</g>
	</g>
</g>
</svg>
