<svg xmlns="http://www.w3.org/2000/svg" xmlns:xlink="http://www.w3.org/1999/xlink" width="434" height="192" viewBox="0 0 434 192">
  <defs>
    <polygon id="ibh_logo@3x-a" points=".594 .5 14.066 .5 14.066 20.943 .594 20.943"/>
    <polygon id="ibh_logo@3x-c" points="0 190.5 432.894 190.5 432.894 1 0 1"/>
  </defs>
  <g fill="none" fill-rule="evenodd" transform="translate(0 1)">
    <path fill="#1A1A1A" d="M198.9338 43.9708L198.9338 43.9708C198.9978 44.0048 198.9858 43.9968 198.9338 43.9708M233.6506 43.9708L233.6426 43.9708C233.5886 43.9968 233.5786 44.0048 233.6506 43.9708M194.7932 21.998C194.9072 22.746 194.2132 22.418 193.9132 22.31 193.7412 22.306 193.5752 22.362 193.4432 22.468 192.9612 22.772 193.2952 23.42 193.4252 23.774 194.2892 25.07 195.6672 25.446 195.4972 25.922 194.7892 26.134 194.1852 25.428 193.9132 26.134 193.7872 27.266 195.6672 27.89 195.6672 28.206 195.7812 28.586 195.0392 28.456 195.1652 28.832 195.2892 29.21 196.8572 30.022 196.4172 30.206 195.5292 30.322 194.7752 29.416 194.0552 28.88 192.3012 26.456 191.1612 23.09 192.4512 20.09 193.0012 18.364 194.4692 16.79 196.4452 16.424 198.2932 16.226 199.7992 16.728 200.6772 17.226 203.9352 18.866 206.5432 23.656 210.5792 24.73L210.7352 24.888C210.5512 25.15 210.1052 25.056 209.8552 24.966 206.2932 24.116 202.4952 18.114 198.7952 17.548 198.8012 17.548 193.9752 16.732 194.7932 21.998M217.5372 19.7794C217.7592 20.0434 217.9832 20.4474 217.7712 20.7894 217.0132 20.5794 216.2132 20.5794 215.4552 20.7894 215.2832 20.8814 215.1272 20.8394 214.8932 20.7894 214.6952 20.3694 214.8932 20.0034 215.2192 19.7014 215.8472 19.1514 216.9212 19.2054 217.5372 19.7794M184.717 24.9668C184.259 25.2588 184.259 23.9408 183.499 24.4388 182.277 25.2428 184.481 28.9608 184.481 28.9608 184.573 29.5208 183.443 28.3888 183.277 29.2748 183.129 30.7128 185.359 32.2548 185.359 32.2548 185.511 32.6608 184.635 32.1568 184.807 32.8368 184.759 33.5988 186.263 34.4148 185.833 34.8708 185.751 34.8508 184.801 34.3708 184.489 34.0608 182.065 31.5928 181.115 27.0788 182.177 23.9388 183.067 21.3128 186.361 19.7368 187.267 19.5588 188.173 19.3788 188.141 20.2348 187.473 20.4548 183.991 21.6028 185.177 24.6748 184.717 24.9668"/>
    <path fill="#1A1A1A" d="M211.0002 27.461C211.8922 27.375 211.2922 27.717 211.1462 27.767 203.1902 29.019 196.3742 23.211 196.3742 23.211 196.1122 22.911 195.8242 22.503 196.0582 22.099 196.2162 21.825 196.6302 21.927 196.8622 22.021 196.8582 22.021 203.1902 28.205 211.0002 27.461M214.8126 25.2148C214.9686 26.2468 215.4546 27.2468 215.2966 28.3188 215.0466 28.7508 214.5126 28.8168 214.0146 28.8028 213.5966 28.5668 214.1186 28.3188 214.1726 28.0848 214.4446 27.7408 215.0466 27.4408 214.7346 26.9708 214.0946 26.4988 213.6346 27.4808 212.9006 27.2848 212.7026 26.4828 214.0666 26.0008 214.0146 25.2148 213.8686 24.7948 213.3866 24.9868 213.1346 25.0448 212.8746 25.2788 212.5206 25.4908 212.1806 25.2928 212.0906 24.4188 213.1886 23.7728 213.6986 23.1328 214.6686 23.2308 214.4446 24.5208 214.8126 25.2148M217.7442 25.2148C217.5902 26.2468 217.1042 27.2468 217.2602 28.3188 217.5082 28.7508 218.0462 28.8168 218.5442 28.8028 218.9622 28.5668 218.4402 28.3188 218.3862 28.0848 218.1142 27.7408 217.5082 27.4408 217.8242 26.9708 218.4642 26.4988 218.9242 27.4808 219.6562 27.2848 219.8522 26.4828 218.4922 26.0008 218.5422 25.2148 218.6882 24.7948 219.1722 24.9868 219.4222 25.0448 219.6842 25.2788 220.0362 25.4908 220.3742 25.2928 220.4682 24.4188 219.3682 23.7728 218.8582 23.1328 217.8902 23.2308 218.1142 24.5208 217.7442 25.2148M204.756 35.4766L204.348 35.0866C204.348 35.0866 207.388 32.6566 211.222 32.4386L211.714 33.0966C208.142 33.1566 204.756 35.4766 204.756 35.4766M201.8498 50.9394C202.4238 51.0534 203.5678 53.2074 203.5678 53.8034 203.5678 54.5254 202.3918 57.2394 201.8498 57.2334099 201.3078 57.2274 200.2118 54.3934 200.1318 53.8034 200.0518 53.2134 201.3078 50.8354 201.8498 50.9394M192.5704 59.0684C191.7164 59.4124 190.5924 57.0344 190.8164 55.5404 191.0824 54.5204 191.6784 52.6784 192.7064 52.8944 194.4444 53.2624 194.1944 58.4144 192.5704 59.0684M239.6036 59.0684C240.4576 59.4124 241.5836 57.0344 241.3596 55.5404 241.0936 54.5204 240.4956 52.6784 239.4696 52.8944 237.7316 53.2624 237.9816 58.4144 239.6036 59.0684M194.3498 15.832C193.5658 15.832 192.9318 15.198 192.933795 14.414 192.933795 13.628 193.5678 12.996 194.3518 12.996 195.1358 12.996 195.7698 13.63 195.7698 14.414 195.7698 15.198 195.1378 15.832 194.3518 15.832L194.3498 15.832zM191.09 18.9668C190.306 18.9668 189.67 18.3328 189.67 17.5488 189.67 16.7628 190.306 16.1288 191.09 16.1288 191.876 16.1288 192.51 16.7628 192.51 17.5488 192.51 18.3328 191.878 18.9668 191.092 18.9668L191.09 18.9668zM187.0782 18.5898C186.2922 18.5898 185.6582 17.9558 185.6582 17.1718 185.6582 16.3858 186.2922 15.7518 187.0782 15.7518 187.8622 15.7518 188.4982 16.3858 188.4982 17.1718 188.4982 17.9558 187.8642 18.5898 187.0822 18.5898L187.0782 18.5898zM189.59 23.4804C188.806 23.4804 188.172 22.8464 188.17 22.0624 188.17 21.2784 188.804 20.6424 189.588 20.6424 190.372 20.6424 191.008 21.2764 191.008 22.0604 191.008 22.8444 190.374 23.4784 189.59 23.4804M182.6916 20.9708C181.9056 20.9708 181.2736 20.3368 181.2736 19.5528 181.2736 18.7688 181.9096 18.1348 182.6936 18.1348 183.4776 18.1348 184.1116 18.7708 184.109605 19.5548 184.1116 20.3368 183.4776 20.9708 182.6956 20.9708L182.6916 20.9708zM179.9318 24.4980051C179.2098 24.5 178.621795 23.914 178.621795 23.192 178.6198 22.466 179.2058 21.88 179.9278 21.8779949 180.6498 21.876 181.2378 22.462 181.2398 23.186L181.2398 23.19C181.2398 23.912 180.6538 24.4980051 179.9318 24.4980051M190.213 27.3144C189.505 27.3124 188.931 26.7384 188.931 26.0304 188.931 25.3224 189.505 24.7484 190.215 24.7503948 190.921 24.7503948 191.497 25.3244 191.497 26.0304 191.497 26.7404 190.921 27.3144 190.213 27.3144M180.4338 31.6758C179.8538 31.6758 179.3858 31.2078 179.3838 30.6298 179.3838 30.0498 179.8518 29.5798 180.4318 29.5778 181.0098 29.5778 181.4798 30.0478 181.4798 30.6278L181.4798 30.6298C181.4798 31.2078 181.0138 31.6758 180.4358 31.6758L180.4338 31.6758zM210.8596 23.8554C210.5376 23.8574 210.2736 23.5974 210.2736 23.2754 210.2716 22.9534 210.5316 22.6914 210.8536 22.6894 211.1756 22.6874 211.4376 22.9474 211.4396 23.2694L211.4396 23.2734C211.4396 23.5934 211.1796 23.8534 210.8596 23.8554M194.3088 31.9962C193.9228 31.9982 193.6068 31.6842 193.6048 31.2962048 193.6048 30.9102 193.9188 30.5982 194.3048 30.5962 194.6908 30.5962 195.0068 30.9082 195.0068 31.2942L195.0068 31.2962048C195.0068 31.6842 194.6928 31.9962 194.3088 31.9962M192.051 30.422C191.473 30.422 191.003 29.954 191.003 29.376 191.003 28.796 191.471 28.3259936 192.049 28.3259936 192.629 28.324 193.097 28.794 193.099 29.374L193.099 29.376C193.099 29.954 192.631 30.422 192.051 30.422M237.9748 21.998C237.8588 22.746 238.5568 22.418 238.8568 22.31 239.0268 22.306 239.1928 22.364 239.3248 22.468 239.8088 22.772 239.4748 23.42 239.3448 23.774 238.4808 25.07 237.1008 25.446 237.2728 25.922 237.9808 26.134 238.5828 25.428 238.8568 26.134 238.9828 27.266 237.1008 27.89 237.1008 28.206 236.9868 28.586 237.7288 28.456 237.6028 28.832 237.4788 29.21 235.9108 30.022 236.3508 30.206 237.2408 30.322 237.9948 29.416 238.7148 28.88 240.4688 26.456 241.6068 23.09 240.3108 20.09 239.7628 18.364 238.2948 16.79 236.3168 16.424 234.4708 16.226 232.9648 16.728 232.0868 17.226 228.8288 18.866 226.2208 23.656 222.1848 24.73L222.0288 24.888C222.2128 25.15 222.6588 25.056 222.9068 24.966 226.4688 24.116 230.2708 18.114 233.9688 17.548 233.9688 17.548 238.7948 16.732 237.9748 21.998M242.5568 27.3144C243.2648 27.3144 243.8408 26.7404 243.8408 26.0304 243.8408 25.3244 243.2648 24.7504 242.5568 24.7504 241.8488 24.7504 241.2748 25.3244 241.2748 26.0304 241.2748 26.7404 241.8488 27.3144 242.5568 27.3144M238.6408 32.4356C239.0268 32.4356 239.3408 32.1236 239.3408 31.7376 239.3408 31.3516 239.0268 31.0396 238.6408 31.0396 238.2548 31.0396 237.9408 31.3516 237.9408 31.7376 237.9408 32.1236 238.2548 32.4356 238.6408 32.4356M240.717 30.422C241.295 30.422 241.765006 29.954 241.765006 29.376 241.767 28.796 241.299 28.3259936 240.719 28.3259936 240.141 28.324 239.671 28.794 239.671 29.374L239.671 29.376C239.671 29.954 240.139 30.422 240.717 30.422M181.7716 34.0762C181.2996 34.0762 180.9136 33.6942 180.9136 33.2202 180.9116 32.7462 181.2976 32.3642 181.7696 32.3622 182.2416 32.3622 182.6276 32.7442 182.6276 33.2182 182.6276 33.6922 182.2436 34.0742 181.7716 34.0762M205.008 18.5332C204.536 18.5332 204.15 18.1532 204.15 17.6772 204.148 17.2052 204.532 16.8232 205.004 16.8232 205.476 16.8212 205.862 17.2032 205.862 17.6752 205.862 18.1492 205.48 18.5312 205.008 18.5332M207.0138 20.9532C206.5418 20.9532 206.1558 20.5712 206.1558 20.0972 206.1558 19.6252 206.5398 19.2432 207.0118 19.2432 207.4838 19.2412 207.8678 19.6232 207.8678 20.0952L207.8678 20.0972C207.8678 20.5712 207.4858 20.9532 207.0138 20.9532M179.4318 28.4316C178.7498 28.4316 178.1998 27.8796 178.1998 27.1996 178.2018 26.5196 178.7518 25.9696 179.4338 25.9696 180.1138 25.9696 180.6638 26.5216 180.6638 27.2016 180.6638 27.8816 180.1138 28.4316 179.4338 28.4316L179.4318 28.4316zM245.8146 18.5898047C246.5986 18.5918 247.2346 17.9578 247.236605 17.1738 247.2386 16.3878 246.6046 15.7517953 245.8186 15.7517953 245.0346 15.7498 244.3986 16.3838 244.3966 17.1678L244.3966 17.1718C244.3986 17.9558 245.0306 18.5898047 245.8146 18.5898047M243.3068 23.4804C244.0928 23.4804 244.7268 22.8464 244.7268 22.0604 244.7268 21.2764 244.0928 20.6424 243.3068 20.6424 242.5228 20.6424 241.8888 21.2764 241.8888 22.0604 241.8888 22.8444 242.5228 23.4804 243.3068 23.4804M250.2032 20.9708047C250.9872 20.9728 251.6212 20.3388 251.6232 19.5548 251.6232 18.7708 250.9892 18.1348 250.2052 18.1348 249.4212 18.1348 248.7852 18.7688 248.7852 19.5528L248.7852 19.5548C248.7852 20.3368 249.4192 20.9708047 250.2032 20.9708047M252.961 24.498C253.685 24.498 254.271 23.912 254.271 23.19 254.271 22.464 253.685 21.878 252.961 21.878 252.239 21.878 251.653 22.464 251.653 23.19 251.653 23.912 252.237 24.498 252.959 24.498L252.961 24.498zM252.4592 31.6758064C253.0372 31.6778 253.5072 31.2098 253.509206 30.6298 253.5112 30.0518 253.0432 29.5798 252.4632 29.5778 251.8852 29.5778 251.4152 30.0478 251.4132 30.6258L251.4132 30.6298C251.4132 31.2078 251.8812 31.6758064 252.4572 31.6758064L252.4592 31.6758064zM251.1192 34.0762C251.5912 34.0762 251.9772 33.6922 251.9772 33.2182 251.9772 32.7462 251.5912 32.3622 251.1192 32.3622 250.6472 32.3622 250.2612 32.7462 250.2612 33.2182 250.2612 33.6922 250.6472 34.0762 251.1192 34.0762M253.463 28.4316C254.143 28.4316 254.693 27.8796 254.693 27.1996 254.693 26.5196 254.141 25.9696 253.461 25.9696 252.779 25.9696 252.229 26.5216 252.230995 27.2016 252.230995 27.8816 252.781 28.4316 253.461 28.4316L253.463 28.4316zM208.8518 22.5742C208.4658 22.5742 208.1518 22.2622 208.1498 21.8741952 208.1498 21.4882 208.4638 21.1742 208.8498 21.1742 209.2358 21.1722 209.5518 21.4862 209.5518 21.8722L209.5518 21.8741952C209.5518 22.2602 209.2378 22.5722 208.8518 22.5742"/>
    <path fill="#1A1A1A" d="M208.301 27.0332C207.979 27.0332 207.717 26.7712 207.719 26.4492 207.719 26.1272 207.981 25.8672 208.303 25.8672 208.625 25.8692 208.885 26.1292 208.885 26.4512 208.883 26.7732 208.623 27.0352 208.301 27.0332M198.6544 15.3614C197.9464 15.3614 197.3724 14.7874 197.3724 14.0774 197.3744 13.3714 197.9484 12.7974 198.6564 12.7974 199.3644 12.7994 199.938405 13.3714 199.938405 14.0774 199.9404 14.7874 199.3644 15.3614 198.6564 15.3614L198.6544 15.3614zM202.2482 16.3808C201.6702 16.3808 201.2002 15.9108 201.2002 15.3328 201.2002 14.7548 201.6702 14.2828 202.2482 14.2828 202.8262 14.2828 203.2962 14.7548 203.2962 15.3328 203.2962 15.9108 202.8262 16.3808 202.2482 16.3808M200.2462 22.709C199.7742 22.709 199.3882 22.329 199.3862 21.853 199.3842 21.381 199.7682 20.997 200.2422 20.995 200.7142 20.995 201.1002 21.377 201.1022 21.849L201.1022 21.853C201.1002 22.325 200.7182 22.707 200.2462 22.709M197.4006 20.9766C196.8226 20.9766 196.3546 20.5086 196.3546 19.9306 196.3546 19.3526 196.8226 18.8806 197.4006 18.8806 197.9806 18.8806 198.4486 19.3526 198.4486 19.9306 198.4466 20.5086 197.9786 20.9766 197.4006 20.9766M202.9182 24.713C202.4462 24.715 202.0622 24.333 202.0602 23.859 202.0602 23.387 202.4442 23.003 202.9162 23.003 203.3882 23.003 203.7722 23.385 203.7742 23.857L203.7742 23.859C203.7722 24.331 203.3902 24.713 202.9182 24.713M205.76 26.3126C205.374 26.3126 205.06 26.0006 205.06 25.6126 205.06 25.2266 205.374 24.9146 205.76 24.9146 206.146 24.9146 206.46 25.2266 206.46 25.6126 206.46 26.0006 206.146 26.3126 205.76 26.3126M210.4532 26.8712C210.1312 26.8692 209.8712 26.6072 209.8712 26.2852 209.8712 25.9632 210.1332 25.7032 210.4552 25.7032 210.7772 25.7052 211.0372 25.9672 211.0372 26.2892 211.0372 26.6092 210.7792 26.8692 210.4572 26.8712L210.4532 26.8712zM221.719 27.461C220.827 27.375 221.427 27.717 221.573 27.767 229.529 29.019 236.343 23.211 236.343 23.211 236.607 22.911 236.897 22.503 236.661 22.099 236.503 21.825 236.089 21.927 235.859 22.021 235.861 22.021 229.529 28.205 221.719 27.461M238.3692 15.832C239.1532 15.832 239.7872 15.198 239.7872 14.414 239.7852 13.628 239.1512 12.996 238.3672 12.996 237.5832 12.996 236.9492 13.63 236.9492 14.414 236.9492 15.198 237.5852 15.832 238.3692 15.832M241.629 18.9668C242.413 18.9668 243.049 18.3328 243.049 17.5488 243.049 16.7628 242.413 16.1288 241.629 16.1288 240.845 16.1288 240.209 16.7628 240.209 17.5488 240.209 18.3328 240.845 18.9668 241.629 18.9668M221.8614 23.8554C222.1834 23.8554 222.4434 23.5934 222.4434 23.2714 222.4434 22.9494 222.1814 22.6894 221.8594 22.6894 221.5374 22.6894 221.2774 22.9514 221.2774 23.2734 221.2774 23.5954 221.5374 23.8554 221.8594 23.8554L221.8614 23.8554zM227.713 18.5332C228.185 18.5332 228.569 18.1492 228.567 17.6752 228.567 17.2032 228.181 16.8212 227.709 16.8232 227.239 16.8232 226.855 17.2052 226.855 17.6752 226.855 18.1512 227.239 18.5332 227.713 18.5332M225.7052 20.9532C226.1772 20.9532 226.5632 20.5712 226.5632 20.0972 226.5632 19.6252 226.1772 19.2432 225.7052 19.2432 225.2332 19.2432 224.8492 19.6252 224.8492 20.0972 224.8492 20.5712 225.2312 20.9532 225.7032 20.9532L225.7052 20.9532zM223.8674 22.5742C224.2534 22.5742 224.5674 22.2622 224.5694 21.8741952 224.5694 21.4882 224.2554 21.1742 223.8694 21.1742 223.4834 21.1722 223.1674 21.4862 223.1674 21.8722L223.1674 21.8741952C223.1674 22.2602 223.4814 22.5722 223.8674 22.5742"/>
    <path fill="#1A1A1A" d="M224.422 27.0332C224.744 27.0352 225.006 26.7732 225.006 26.4512 225.008 26.1292 224.746 25.8692 224.424 25.8672 224.104 25.8672 223.842 26.1272 223.84 26.4492L223.84 26.4512C223.842 26.7732 224.102 27.0332 224.422 27.0332M234.0646 15.3614C234.7726 15.3614 235.3466 14.7874 235.3466 14.0774 235.3446 13.3714 234.7706 12.7974 234.0626 12.7974 233.3566 12.7994 232.7806 13.3714 232.7806 14.0774 232.7806 14.7874 233.3566 15.3614 234.0646 15.3614M230.469 16.3808C231.047 16.3808 231.517 15.9148 231.519006 15.3348 231.521 14.7568 231.053 14.2848 230.473 14.2828 229.895 14.2828 229.425 14.7508 229.423 15.3308L229.423 15.3328C229.425 15.9108 229.891 16.3788 230.469 16.3808M232.4748 22.709C232.9488 22.709 233.3328 22.327 233.3348 21.853 233.3348 21.379 232.9508 20.997 232.4768 20.995 232.0048 20.995 231.6188 21.377 231.6188 21.849L231.6188 21.853C231.6188 22.327 232.0028 22.709 232.4748 22.709M235.3186 20.9766C235.8966 20.9766 236.3646 20.5086 236.3646 19.9306 236.3646 19.3526 235.8966 18.8806 235.3186 18.8806 234.7406 18.8806 234.2726 19.3526 234.2726 19.9306 234.2726 20.5086 234.7386 20.9766 235.3166 20.9766L235.3186 20.9766zM229.801 24.713C230.273 24.713 230.657 24.331 230.657 23.857 230.657 23.385 230.273 23.003 229.801 23.003 229.329 23.003 228.945 23.385 228.945 23.857L228.945 23.859C228.945 24.333 229.329 24.713 229.801 24.713M226.9592 26.3126C227.3452 26.3126 227.6592 26.0006 227.6592 25.6126 227.6592 25.2266 227.3452 24.9146 226.9592 24.9146 226.5732 24.9146 226.2592 25.2266 226.2592 25.6126 226.2592 25.9986 226.5732 26.3126 226.9572 26.3126L226.9592 26.3126zM222.2638 26.8712C222.5858 26.8712 222.8478 26.6112 222.8498 26.2892 222.8498 25.9672 222.5898 25.7052 222.2678 25.7032 221.9458 25.7032 221.6838 25.9632 221.6838 26.2852L221.6838 26.2892C221.6838 26.6092 221.9438 26.8692 222.2638 26.8712M214.0274 50.4688L218.5554 50.4688C219.1814 50.4688 219.6894 50.9788 219.6894 51.6048L219.6894 54.7008C219.6894 55.3288 219.1814 55.8388 218.5554 55.8388L214.0274 55.8388C213.3994 55.8388 212.8914 55.3288 212.8914 54.7008L212.8914 51.6048C212.8914 50.9788 213.3994 50.4688 214.0274 50.4688M208.1428 52.998C208.8968 52.998 209.5168 52.282 209.5168 51.392 209.5168 50.506 208.9028 49.794 208.1428 49.794 207.3828 49.794 206.7688 50.51 206.7688 51.392 206.7688 52.278 207.3848 52.998 208.1428 52.998M208.1428 57.0098C208.8968 57.0098 209.5168 56.2958 209.5168 55.4058 209.5168 54.5178 208.9028 53.8078 208.1428 53.8078 207.3828 53.8078 206.7688 54.5238 206.7688 55.4058 206.7688 56.2898 207.3848 57.0098 208.1428 57.0098M196.7774 58.2618C197.2434 58.2618 197.6214 57.7478 197.6214 57.1158 197.6214 56.4818 197.2434 55.9698 196.7774 55.9698 196.3134 55.9698 195.9334 56.4838 195.9334 57.1158 195.9334 57.7458 196.3114 58.2618 196.7774 58.2618M196.6056 54.4258C197.0736 54.4258 197.4516 53.9098 197.4516 53.2798 197.4516 52.6478 197.0736 52.1338 196.6056 52.1338 196.1396 52.1338 195.7636 52.6458 195.7636 53.2798 195.7636 53.9138 196.1436 54.4258 196.6056 54.4258M235.4826 58.3906C235.0166 58.3906 234.6386 57.8766 234.6386 57.2446 234.6386 56.6086 235.0166 56.0986 235.4826 56.0986 235.9466 56.0986 236.3246 56.6106 236.3246 57.2446 236.3246 57.8766 235.9466 58.3906 235.4826 58.3906M235.6506 54.5548C235.1866 54.5548 234.8046 54.0408 234.8046 53.4088 234.8046 52.7768 235.1866 52.2628 235.6506 52.2628 236.1166 52.2628 236.4946 52.7768 236.4946 53.4088 236.4946 54.0408 236.1166 54.5548 235.6506 54.5548M247.8596 24.9668C248.3176 25.2588 248.3176 23.9408 249.0796 24.4388 250.3016 25.2428 248.0956 28.9608 248.0956 28.9608 248.0056 29.5208 249.1356 28.3888 249.3016 29.2748 249.4476 30.7128 247.2196 32.2548 247.2196 32.2548 247.0656 32.6608 247.9436 32.1568 247.7696 32.8368 247.8176 33.5988 246.3136 34.4148 246.7456 34.8708 246.8276 34.8508 247.7776 34.3708 248.0876 34.0608 250.5136 31.5928 251.4636 27.0788 250.4016 23.9388 249.5096 21.3128 246.2156 19.7368 245.3096 19.5588 244.4036 19.3788 244.4356 20.2348 245.1056 20.4548 248.5876 21.6028 247.4016 24.6748 247.8596 24.9668M227.8204 35.4766L228.2284 35.0866C228.2284 35.0866 225.1884 32.6566 221.3544 32.4386L220.8624 33.0966C224.4364 33.1566 227.8204 35.4766 227.8204 35.4766"/>
    <path fill="#1A1A1A" d="M243.086,42.9942 C242.838,43.6082 242.418,44.0162 242.144,43.9042 C241.872,43.7942 241.854,43.2062 242.1,42.5962 C242.346,41.9862 242.768,41.5762 243.042,41.6802 C243.316,41.7842 243.334,42.3802 243.086,42.9942 L243.086,42.9942 Z M231.646,41.5722 C231.206,40.9982 231.114,40.2322 231.176,39.6602 C231.384,38.9002 231.8,38.1802 232.522,37.9822 C232.98,38.3502 233.472,39.3442 233.148,40.1782 C232.916,40.7802 231.894,41.9002 231.646,41.5722 L231.646,41.5722 Z M215.328,39.9922097 C214.946,39.9942 214.632,39.6882 214.628,39.3042 L214.628,37.4262 C214.632,37.0422 214.946,36.7342 215.328,36.7382 L217.252,36.7382 C217.634,36.7342 217.95,37.0422 217.954,37.4262 L217.954,39.3042 C217.948,39.6882 217.634,39.9942 217.252,39.9922097 L215.328,39.9922097 Z M200.932,41.5722 C200.68,41.9002 199.624,40.7922 199.428,40.1782 C199.156,39.3222 199.596,38.3442 200.054,37.9822 C200.776,38.1802 201.194,38.9002 201.402,39.6602 C201.462,40.2322 201.372,40.9902 200.934,41.5722 L200.932,41.5722 Z M190.432,43.9042 C190.16,44.0202 189.744,43.6082 189.49,42.9942 C189.238,42.3822 189.262,41.7962 189.536,41.6862 C189.806,41.5742 190.228,41.9822 190.476,42.6022 C190.726,43.2202 190.706,43.7922 190.432,43.9042 L190.432,43.9042 Z M250.098,36.1502 C249.468,35.2462 248.616,34.8882 247.374,35.4302 C246.404,35.7462 245.686,36.3562 244.738,37.0342 C244.462,36.4462 244.66,35.6582 244.266,35.1102 C243.614,35.1342 243.324,35.8802 242.984,36.3142 C242.788,37.4202 242.71,38.5422 242.748,39.6662 L242.59,39.8242 C242.246,39.3122 242.16,38.6982 241.466,38.5542 L240.914,38.6302 C240.772,39.0642 241.452,39.3522 241.466,39.8242 C240.966,40.2702 240.548,39.2982 239.946,39.7422 C238.976,40.8322 239.08,42.7702 239.552,44.0522 L240.292,44.8842 C239.948,45.3162 238.976,44.8902 238.916,45.4942 C238.856,46.5782 240.704,45.5802 240.292,46.3262 C240.292,46.3262 239.414,47.9562 238.662,47.7682 C237.68,47.5242 237.19,45.6362 237.334,44.7602 C237.218,43.9462 238.478,44.0722 238.676,43.1762 C238.914,42.6282 238.538,41.4382 237.72,41.1862 C236.856,40.9242 236.134,41.5122 235.886,42.2162 C235.442,43.1862 236.7,43.5542 236.36,44.3762 C235.978,45.1802 234.65,46.6402 233.522,46.0742 C232.392,45.5102 232.582,43.2522 232.582,43.2522 C232.908,43.4502 233.25,44.1442 233.64,43.9722 C233.784,43.8962 234.242,43.6422 234.148,43.5042 C234.276,43.3142 233.288,43.0982 232.96,42.6902 C233.72,42.8422 234.276,42.8762 234.84,42.3122 C235.716,41.6242 236.406,39.0522 235.794,38.7062 C235.22,38.2342 234.164,38.6702 234.276,38.2382 C234.524,37.7802 235.73,38.2302 235.39,37.4722 C234.59,36.3602 234.024,38.2382 233.524,37.3582 C233.274,36.6062 234.266,36.4722 234.742,36.0082 C235.218,35.5422 236.776,33.8542 236.086,33.4262 C235.398,33.0002 234.966,33.9102 234.588,33.4082 C234.742,33.0162 236.72,31.4602 235.842,30.7742 C234.254,29.5242 233.436,32.9362 233.436,32.9362 C232.898,32.5042 233.174,32.0622 232.452,31.8322 C231.482,32.1242 231.518,34.1002 231.736,34.9422 C231.956,35.7862 232.648,36.6042 232.07,36.9702 C231.538,37.2202 230.88,34.9082 230.124,36.0382 C229.838,36.4602 230.768,36.6042 230.706,37.2282 C230.628,37.9822 229.742,36.7922 229.558,36.7702 C229.024,36.6142 229.004,36.6682 228.572,36.9822 C227.758,38.2982 227.758,39.8662 228.198,40.6802 C228.634,41.4342 229.888,41.9342 229.888,41.9342 C229.628,41.9602 228.712,41.9022 228.544,42.1362 C228.516,42.5022 228.648,42.9082 228.95,43.0002 C229.514,43.0002 229.952,42.8122 230.456,42.7722 C230.208,43.7822 229.508,45.1162 227.504,45.0262 C225.502,44.9362 225.348,41.9742 225.348,41.9742 C225.872,41.5162 226.566,41.2382 226.648,40.2402 C226.738,39.1582 225.814,38.2302 224.938,38.1062 C224.192,37.9982 222.976,38.9822 223.054,39.9222 C222.93,40.9882 223.478,41.3442 223.874,41.8022 C223.36,42.7962 222.282,44.4602 221.038,44.5282 C219.74,44.7002 218.668,44.0042 218,43.0082 C217.724,42.5242 217.198,41.9482 217.516,41.4042 C218.128,41.4702 218.234,42.2302 218.878,42.2062 C219.258,42.1282 219.728,42.0922 219.908,41.7222 C219.818,41.3562 218.56,41.5122 219.284,40.9202 C220.368,40.9702 221.194,40.3562 221.666,39.4142 C222.178,38.4742 222.238,36.9082 221.992,36.2962 C221.56,35.7722 221.048,35.3682 220.316,35.6542 C219.908,35.6802 219.398,36.3082 219.112,35.7342 C219.058,34.9202 221.35,35.0782 219.832,34.3842 C219.238,34.3422 218.676,34.6582 218.404,35.1862 C218.404,35.4362 218.116,35.6442 217.92,35.7382 C217.684,35.7882 217.5,35.6842 217.356,35.5022 C217.226,34.7002 218.272,34.4002 218.482,33.7462 C218.856,33.0882 219.596,31.3502 218.716,30.3162 C218.482,30.1302 218.088,29.9482 217.998,30.3922 C217.882,30.6822 217.97,31.0742 217.606,31.2722 C217.362,31.3382 217.11,31.1942 217.044,30.9502 C217.044,30.9482 217.042,30.9462 217.042,30.9422 C216.926,30.2362 217.538,29.0142 216.288,28.9142 C215.036,29.0142 215.648,30.2362 215.532,30.9422 C215.468,31.1882 215.218,31.3362 214.972,31.2742 C214.97,31.2722 214.968,31.2722 214.966,31.2722 C214.602,31.0742 214.692,30.6822 214.574,30.3922 C214.482,29.9482 214.09,30.1302 213.856,30.3162 C212.976,31.3482 213.718,33.0882 214.09,33.7462 C214.298,34.4002 215.352,34.7022 215.216,35.5022 C215.096,35.6902 214.872,35.7822 214.654,35.7382 C214.458,35.6442 214.168,35.4362 214.168,35.1862 C213.896,34.6582 213.334,34.3422 212.74,34.3842 C211.222,35.0782 213.514,34.9202 213.46,35.7342 C213.172,36.3062 212.66,35.6802 212.258,35.6542 C211.524,35.3682 211.012,35.7682 210.582,36.2962 C210.332,36.9082 210.396,38.4722 210.908,39.4142 C211.378,40.3562 212.204,40.9702 213.292,40.9202 C214.012,41.5082 212.754,41.3522 212.662,41.7222 C212.846,42.0882 213.318,42.1282 213.694,42.2062 C214.334,42.2322 214.44,41.4742 215.054,41.4042 C215.37,41.9422 214.846,42.5182 214.57,43.0082 C213.902,44.0042 212.828,44.7002 211.532,44.5282 C210.288,44.4602 209.21,42.7962 208.7,41.8022 C209.092,41.3462 209.638,40.9882 209.514,39.9222 C209.432,39.1502 208.378,37.9982 207.632,38.1062 C206.756,38.2302 205.83,39.1582 205.92,40.2402 C206.004,41.2382 206.7,41.5142 207.222,41.9742 C207.222,41.9742 207.07,44.9382 205.066,45.0262 C203.064,45.1142 202.366,43.7822 202.116,42.7722 C202.618,42.8062 203.056,43.0002 203.622,43.0002 C203.922,42.9082 204.052,42.5022 204.028,42.1362 C203.858,41.9082 202.942,41.9602 202.68,41.9342 C202.68,41.9342 203.934,41.4342 204.374,40.6802 C204.81,39.8662 204.81,38.2982 203.998,36.9822 C203.564,36.6682 203.548,36.6142 203.01,36.7702 C202.826,36.7962 201.94,37.9862 201.864,37.2282 C201.8,36.6042 202.728,36.4602 202.446,36.0382 C201.69,34.9062 201.03,37.2202 200.498,36.9702 C199.926,36.6042 200.614,35.7862 200.83,34.9422 C201.046,34.0982 201.086,32.1242 200.116,31.8322 C199.392,32.0602 199.67,32.5042 199.132,32.9362 C199.132,32.9362 198.312,29.5242 196.726,30.7742 C195.85,31.4602 197.826,33.0142 197.986,33.4082 C197.61,33.9102 197.176,33.0002 196.488,33.4262 C195.8,33.8542 197.358,35.5402 197.834,36.0082 C198.31,36.4742 199.302,36.6062 199.052,37.3582 C198.55,38.2342 197.982,36.3562 197.184,37.4722 C196.84,38.2302 198.048,37.7802 198.298,38.2382 C198.412,38.6702 197.354,38.2382 196.78,38.7062 C196.168,39.0502 196.858,41.6222 197.734,42.3122 C198.298,42.8762 198.854,42.8422 199.616,42.6902 C199.288,43.0982 198.298,43.3142 198.424,43.5042 C198.332,43.6422 198.792,43.8962 198.934,43.9722 C199.324,44.1442 199.666,43.4502 199.992,43.2522 C199.992,43.2522 200.18,45.5122 199.052,46.0742 C197.926,46.6382 196.596,45.1782 196.216,44.3762 C195.874,43.5542 197.132,43.1862 196.688,42.2162 C196.44,41.5102 195.718,40.9222 194.854,41.1862 C194.038,41.4382 193.662,42.6282 193.898,43.1762 C194.1,44.0702 195.354,43.9462 195.238,44.7602 C195.382,45.6362 194.894,47.5242 193.912,47.7682 C193.158,47.9562 192.282,46.3262 192.282,46.3262 C191.876,45.5802 193.722,46.5782 193.656,45.4942 C193.592,44.8902 192.618,45.3162 192.282,44.8842 L193.022,44.0522 C193.492,42.7702 193.594,40.8322 192.628,39.7422 C192.026,39.2982 191.606,40.2702 191.11,39.8242 C191.122,39.3522 191.802,39.0642 191.658,38.6302 L191.11,38.5542 C190.414,38.6982 190.322,39.3122 189.982,39.8242 L189.826,39.6662 C189.866,38.5422 189.79,37.4202 189.596,36.3142 C189.252,35.8802 188.966,35.1342 188.312,35.1102 C187.918,35.6582 188.116,36.4462 187.84,37.0342 C186.896,36.3622 186.178,35.7522 185.206,35.4302 C183.924,34.8922 183.11,35.2462 182.48,36.1502 C182.004,36.7902 183.704,37.0502 184.078,37.1182 C187.46,37.7342 188.682,40.9082 188.682,40.9082 C188.272,41.8702 190.192,45.4582 191.13,45.5842 C191.13,45.5842 191.406,48.0122 192.944,48.6062 C193.622,48.8182 194.362,48.6302 194.858,48.1202 C195.606,47.4502 195.566,46.3682 195.92,45.5702 C196.436,45.9802 197.426,47.5742 199.498,47.0382 C201.016,46.6482 200.996,43.1242 200.996,43.1242 C201.94,45.0062 203.192,46.5762 205.198,46.2602 C207.016,46.0082 207.516,44.8162 208.032,42.3702 C208.032,42.3702 209.14,46.0242 211.842,45.8722 C215.04,45.6962 216.214,41.9522 216.214,41.9522 L216.292,41.9522 C216.292,41.9522 217.542,45.6962 220.738,45.8722 C223.442,46.0242 224.55,42.3702 224.55,42.3702 C225.064,44.8162 225.566,46.0082 227.384,46.2602 C229.39,46.5762 230.644,45.0062 231.584,43.1242 C231.584,43.1242 231.568,46.6482 233.082,47.0382 C235.158,47.5742 236.144,45.9802 236.662,45.5702 C237.016,46.3702 236.974,47.4502 237.726,48.1202 C238.22,48.6302 238.96,48.8182 239.636,48.6062 C241.176,48.0122 241.45,45.5842 241.45,45.5842 C242.388,45.4582 244.314,41.8702 243.9,40.9082 C243.9,40.9082 245.126,37.7342 248.502,37.1182 C248.878,37.0502 250.576,36.7902 250.098,36.1502 L250.098,36.1502 Z"/>
    <path fill="#1A1A1A" d="M216.8692,48.7638 C216.8692,48.7638 229.6632,48.5978 239.6532,52.0618 C239.6532,52.0618 240.6132,52.0258 240.7472,51.3158 C240.7792,50.6898 239.6232,50.4258 238.9952,50.1098 C232.0652,47.6098 224.5492,47.0338 216.7172,46.9278 L215.8592,46.9278 C208.0292,47.0338 200.5052,47.6158 193.5832,50.1098 C192.9552,50.4258 191.8012,50.5218 191.8292,51.3158 C192.0972,51.8238 192.6552,52.1078 193.2212,52.0258 C203.9192,48.2658 215.7072,48.7638 215.7072,48.7638 L216.8692,48.7638 Z"/>
    <path fill="#1A1A1A" d="M230.7306 51.0644C230.1386 51.0644 229.0126 53.3324 229.0126 53.9304 229.0126 54.6544 230.2426 57.3784 230.7306 57.3584 231.5026 57.3284 232.3686 54.5204 232.4486 53.9304 232.5286 53.3384 231.3366 51.0644 230.7306 51.0644M217.1486 61.7226L215.5426 61.7226C213.2866 61.5146 195.7326 61.0526 195.7326 61.0526 207.3526 59.2966 217.9046 59.3866 214.5826 59.4866L217.8626 59.4866C214.5386 59.3866 225.3426 59.2966 236.9606 61.0526 236.9566 61.0526 219.4026 61.5146 217.1486 61.7226M239.5906 60.4886C235.6406 58.9806 225.5686 58.0086 217.8906 57.7846L214.7966 57.7846C207.1206 58.0086 197.0486 58.9826 193.1006 60.4886 192.0966 60.8706 192.6286 61.5306 192.6286 61.5306 195.2306 62.9966 214.9146 62.9686 216.2906 62.9966L216.3966 62.9966C217.7726 62.9686 237.4606 62.9966 240.0606 61.5306 240.0586 61.5306 240.5926 60.8706 239.5906 60.4886M224.3146 52.998C223.5566 52.998 222.9406 52.282 222.9406 51.392 222.9406 50.506 223.5526 49.794 224.3146 49.794 225.0766 49.794 225.6886 50.51 225.6886 51.392 225.6886 52.278 225.0706 52.998 224.3146 52.998M224.3146 57.0098C223.5566 57.0098 222.9406 56.2958 222.9406 55.4058 222.9406 54.5178 223.5526 53.8078 224.3146 53.8078 225.0766 53.8078 225.6886 54.5238 225.6886 55.4058 225.6886 56.2898 225.0706 57.0098 224.3146 57.0098M216.2872 23.297C215.7092 23.297 215.239194 22.829 215.239194 22.251 215.2372 21.671 215.7072 21.201 216.2852 21.199 216.8632 21.199 217.3332 21.669 217.3332 22.247L217.3332 22.251C217.3332 22.829 216.8652 23.295 216.2872 23.297M216.2872 25.5234C215.9012 25.5214 215.5892 25.2074 215.5892 24.8214 215.5912 24.4354 215.9072 24.1234 216.2912 24.1254 216.6772 24.1274 216.9892 24.4394 216.9892 24.8234 216.9892 25.2114 216.6732 25.5234 216.2872 25.5234M216.2872 27.5958C215.9652 27.5958 215.7052 27.3358 215.7052 27.0138 215.7052 26.6918 215.9652 26.4298 216.2872 26.4298 216.6092 26.4298 216.8712 26.6918 216.8712 27.0138 216.8712 27.3338 216.6112 27.5958 216.2892 27.5958L216.2872 27.5958z"/>
    <g transform="translate(209 .5)">
      <mask id="ibh_logo@3x-b" fill="#fff">
        <use xlink:href="#ibh_logo@3x-a"/>
      </mask>
      <path fill="#1A1A1A" d="M8.3106,12.4552 C8.5486,13.0832 8.6826,13.7472 8.7046,14.4192 C8.7046,14.4192 10.4246,14.7732 11.8986,15.6352 L11.8066,17.0792 C8.6326,16.0752 5.8766,16.1632 2.8466,17.0792 C2.5346,17.1712 2.7546,15.6352 2.7546,15.6352 C4.2326,14.7732 5.9506,14.4192 5.9506,14.4192 C5.9706,13.7472 6.1026,13.0832 6.3446,12.4552 C6.6346,12.2932 6.9966,12.2772 7.3286,12.3012 C7.6606,12.2772 8.0186,12.2932 8.3106,12.4552 M12.7146,5.8632 C12.7146,5.8632 12.6846,4.3512 11.6326,4.3512 C10.6786,4.3512 10.8066,5.8632 10.8066,5.8632 L8.0666,5.8632 L8.0666,3.8012 C8.0666,3.8012 9.4906,3.8512 9.6106,2.9272 C9.4966,1.5952 7.9886,1.8472 7.9886,1.8472 C8.5246,1.3752 8.0506,0.4732 7.2706,0.4992 C6.3766,0.5312 6.2106,1.5312 6.6526,1.8472 C6.6526,1.8472 5.1406,1.8772 5.1406,2.9272 C5.1406,3.8812 6.5726,3.7532 6.5726,3.7532 L6.5726,5.8672 L3.8506,5.8672 C3.8506,5.8672 3.9786,4.3532 3.0226,4.3532 C1.9726,4.3532 1.9406,5.8672 1.9406,5.8672 C1.5226,5.5232 0.6446,5.9192 0.5966,6.4872 C0.5346,7.2392 1.4706,7.7412 1.9406,7.1992 C1.9406,7.1992 1.7846,8.8692 3.0226,8.8272 C3.9166,8.9292 3.8986,7.1992 3.8986,7.1992 L6.5766,7.1992 L6.5766,11.2492 C6.7626,11.2492 2.3686,11.8152 1.9106,15.6372 C1.4506,19.4892 3.7026,20.9432 3.7026,20.9432 C3.7026,20.9432 4.2926,17.7352 7.0506,17.6752 L7.6106,17.6752 C10.3666,17.7392 10.9566,20.9432 10.9566,20.9432 C10.9566,20.9432 13.2126,19.4892 12.7506,15.6372 C12.2926,11.8152 7.8966,11.2492 8.0846,11.2492 L8.1106,11.2492 L8.0706,7.1992 L10.7626,7.1992 C10.7626,7.1992 10.7446,8.9292 11.6366,8.8272 C12.8746,8.8692 12.7186,7.1992 12.7186,7.1992 C13.1906,7.7412 14.1266,7.2392 14.0626,6.4872 C14.0126,5.9172 13.1306,5.5232 12.7146,5.8632" mask="url(#ibh_logo@3x-b)"/>
    </g>
    <path fill="#1A1A1A" d="M221.795 168.7872C220.281 172.2952 216.877 173.6372 212.995 173.8092 210.811 173.7532 208.109 173.7732 207.177 171.4332 207.177 171.4332 207.171 157.8912 207.177 151.4932 214.297 150.4932 218.529 152.7332 220.661 156.7532 222.691 160.2272 223.273 165.0772 221.795 168.7892L221.795 168.7872zM207.177 127.4432C211.923 126.9952 216.877 127.9772 219.423 132.0332 221.419 135.3012 221.899 140.0092 220.281 143.5872 218.219 148.1252 213.193 149.2892 207.177 148.7092 207.173 144.8892 207.193 132.8652 207.177 127.4432L207.177 127.4432zM231.733 158.6452C230.323 152.9052 224.305 149.9472 218.941 149.1892 222.587 148.0892 226.503 146.6792 228.601 142.8292 230.493 139.5972 230.391 134.7852 228.707 131.4872 225.633 124.7712 213.751 125.1272 213.751 125.1272L192.917 125.1772 192.917 126.8432C194.049 126.8432 195.045 127.1212 196.043 127.4972 197.145 128.1852 198.071 129.1672 198.209 130.5232 198.209 130.5232 198.455 170.7612 198.189 171.5612 197.057 173.9452 194.909 174.3612 192.949 174.5692 192.915 175.4232 192.949 175.0872 192.949 176.0792L212.511 176.0792C218.011 176.1832 223.687 176.1152 227.779 172.5032 232.177 169.3372 233.143 163.6992 231.733 158.6452L231.733 158.6452zM47.4122 170.6426C47.3342 172.1526 47.3982 173.1786 46.1962 173.7946 45.1322 174.2666 45.6842 174.1286 43.2742 174.2446L43.2742 176.1766 59.0042 176.1766 59.0042 174.2586C56.5982 174.1426 57.1442 174.2806 56.0802 173.8066 54.8762 173.1886 54.9342 172.1606 54.8582 170.6486 54.8582 170.6486 54.8462 124.0786 54.8582 122.7826 49.4722 124.9326 43.1722 125.8866 43.1722 125.8866 43.1722 125.8866 43.1842 126.7486 43.1722 127.5026 44.7162 127.7066 46.9602 127.5686 47.4102 129.4966L47.4122 170.6426zM4.9044 171.0372C4.8864 173.2132 2.4804 174.7472.1624 174.7332.1784 175.7632.1624 176.1712.1624 176.1712L19.0384 176.1712C19.0384 176.1712 19.0804 175.2472 19.0384 174.7332 16.7884 174.6432 13.6924 172.9152 13.6904 170.9252L13.6904 130.6252C13.6904 128.6352 16.7824 126.7772 19.0344 126.6892 19.0764 126.1732 19.0344 125.3292 19.0344 125.3292L.0004 125.3292C.0004 125.3292.0164 125.6552.0004 126.6892 2.3184 126.6712 4.8864 128.4492 4.9044 130.6252 4.9044 130.6252 4.9824 166.7712 4.9044 171.0372M61.0958 148.5176C61.0838 149.8056 61.1038 150.2876 61.0958 150.2096 62.9118 150.1736 64.8338 150.3316 64.8618 153.8996 64.8738 156.1316 64.8878 164.5576 64.8618 167.6116 64.8338 170.6676 65.7218 174.2076 68.8998 176.1816 74.7438 179.0356 80.6238 175.6656 85.3018 172.5696 85.8498 173.9456 85.9358 174.4716 86.5378 176.8336L97.0618 173.9296C97.0618 173.9296 97.0878 173.3876 97.0898 172.4396 94.7738 173.1876 93.3678 172.6536 93.3078 170.7796L93.3078 144.8936C89.1378 146.3336 85.2018 147.6976 81.5978 148.3316 81.5838 149.6236 81.6058 150.1036 81.5978 150.0276 84.7038 149.9636 85.4478 151.3156 85.4678 153.7656L85.4678 169.9216C82.8878 172.0196 79.1478 173.2256 76.0178 172.1216 74.1958 171.3316 73.0878 169.1336 73.1038 167.6516L73.1038 145.0516C68.9318 146.4856 64.6978 147.8856 61.0958 148.5176M142.5646 153.0058L142.5646 171.2758C142.3586 172.7898 142.5726 173.8378 140.8206 174.3538 140.0986 174.6278 140.1326 174.5738 138.6186 174.9358 138.6426 175.3878 138.6426 175.8418 138.6186 176.2958L154.6606 176.2958C154.6366 175.8438 154.6366 175.3898 154.6606 174.9398 153.1526 174.5758 153.2726 174.6298 152.5506 174.3538 150.7966 173.8378 150.9886 172.7898 150.7826 171.2758L150.7826 154.2298C150.8166 150.6218 149.7706 146.6458 146.1266 145.0998 140.6266 142.7618 134.6706 146.0338 130.3006 149.5478 129.4606 147.5378 127.5606 145.6518 125.9466 145.0318 120.2026 142.6258 115.1666 146.7318 110.7306 149.4478 110.7306 149.4478 110.7706 146.0738 110.7306 143.9638 110.7306 143.9638 103.3886 146.9718 99.3346 148.3318L99.3346 149.9498 100.6406 149.9498C101.8766 149.9838 102.7886 150.2938 103.0646 151.3578L103.0646 171.2138C102.8586 172.7258 103.0806 173.7758 101.3286 174.2918 100.6066 174.5658 100.6346 174.5138 99.1266 174.8738 99.1626 175.7978 99.1266 176.2318 99.1266 176.2318L114.7006 176.2318C114.6786 175.7818 114.6786 175.3278 114.7006 174.8778 113.1926 174.5138 113.3146 174.5658 112.5926 174.2918 110.8386 173.7758 111.0506 172.7258 110.8446 171.2138L110.8326 152.2978C111.8926 150.7138 116.4526 147.9538 119.7866 149.1918 121.3006 149.8098 122.5766 151.7478 122.6086 153.4298L122.6826 171.2878C122.4746 172.7998 122.6486 173.8478 120.8946 174.3638 120.1726 174.6398 120.1986 174.5938 118.6946 174.9498 118.7286 175.8738 118.6946 176.3058 118.6946 176.3058L134.2706 176.3058C134.2466 175.8538 134.2466 175.3998 134.2706 174.9498 132.7626 174.5878 132.8826 174.6398 132.1606 174.3658 130.4066 173.8478 130.6186 172.7978 130.4126 171.2858L130.3646 152.2658C131.7406 150.2378 134.5326 149.1378 136.2566 148.7078 137.3866 148.4758 139.6606 148.7078 140.8986 149.7378 141.7546 150.5658 142.5306 151.4458 142.5646 153.0058M273.3518 170.6992C273.2738 172.2112 273.3378 173.2372 272.1338 173.8532 271.0718 174.3252 271.6218 174.1872 269.2118 174.3032L269.2118 176.1592 284.9418 176.1592 284.9418 174.3112C282.5358 174.1972 283.0838 174.3332 282.0198 173.8612 280.8138 173.2432 280.8738 172.2152 280.7978 170.7052L280.7978 122.8352C275.4118 124.9872 269.1098 125.9392 269.1098 125.9392 269.1098 125.9392 269.1218 126.8032 269.1098 127.5552 270.6578 127.7612 272.9018 127.6232 273.3498 129.5512L273.3518 170.6992zM291.9768 170.6992C291.8988 172.2112 291.9608 173.2372 290.7588 173.8532 289.6948 174.3252 290.2468 174.1872 287.8368 174.3032L287.8368 176.1592 303.5668 176.1592 303.5668 174.3112C301.1608 174.1972 301.7048 174.3332 300.6428 173.8612 299.4388 173.2432 299.4968 172.2152 299.4208 170.7052L299.4208 143.8152C294.0348 145.9632 287.7328 147.9392 287.7328 147.9392 287.7328 147.9392 287.7488 148.8012 287.7328 149.5552 289.2808 149.7592 291.5268 149.6232 291.9728 151.5492L291.9768 170.6992zM294.9532 137.0098C297.5252 137.0098 299.6112 134.9238 299.6112 132.3518 299.6112 129.7798 297.5252 127.6958 294.9532 127.6958 292.3812 127.6958 290.2972 129.7798 290.2972 132.3518 290.2972 134.9238 292.3812 137.0098 294.9532 137.0098M325.9024 186.9786C322.4984 188.7326 317.3424 189.0406 313.9704 187.0826 309.8304 184.3066 310.7744 180.1626 312.9644 178.5306 315.2184 177.0406 315.2124 177.2706 315.7604 177.1566 317.1624 177.4066 317.1624 177.3846 319.4684 177.6646 320.7744 177.8186 322.3184 178.0906 324.2864 178.4546 330.6304 179.6266 329.0564 185.0066 325.9024 186.9766L325.9024 186.9786zM313.3384 155.2066C312.7244 150.2106 314.5164 146.3426 317.3324 145.9966 320.1484 145.6506 322.9244 148.9586 323.5364 153.9566 324.1504 158.9546 322.3224 162.5186 319.5064 162.8626 316.6904 163.2086 313.9524 160.2026 313.3384 155.2066L313.3384 155.2066zM316.7224 169.9246C315.5884 169.5446 315.4164 168.3066 315.6564 167.2766 315.9504 166.2466 317.0644 165.5586 317.9264 165.1086 322.6724 164.9366 327.8604 164.2146 330.4424 159.6086 331.8844 157.3086 331.7804 153.6286 330.5444 151.2906 330.3384 150.4646 329.3744 149.7946 329.5144 148.9986L333.4004 148.9986 334.9424 145.5786 324.8704 145.5786C320.4024 143.1026 313.7664 143.5846 309.7104 146.6446 306.4784 149.2906 304.6564 152.9706 305.6184 157.2326 306.7324 161.3666 309.6124 163.5706 314.2484 164.9006 312.7744 165.8606 311.8944 165.9846 310.8464 166.8946 309.2984 168.1666 307.6464 169.8186 308.2684 172.0186 308.7484 173.3926 310.3304 174.3206 311.3264 175.2506 309.9864 175.9026 308.5064 176.2806 307.3364 177.3126 305.6524 178.7906 305.0684 180.6806 305.2404 182.9166 305.5344 185.2206 307.6824 187.4546 309.8804 188.6906 316.5324 191.4606 325.8004 191.3046 331.4044 186.4246 334.1204 184.0506 335.1864 180.7846 334.4304 177.2066 332.1604 169.2706 322.8904 171.5746 316.7224 169.9246L316.7224 169.9246zM368.5724 171.9766C368.8804 173.7946 369.5104 174.3106 371.9184 174.4266L371.9184 176.2726 356.1904 176.2726 356.1904 174.4166C358.5964 174.3026 359.0984 173.6406 359.6124 171.9766 360.3104 170.1226 359.9064 154.6606 359.9064 152.9726 359.9064 151.2846 359.1144 150.4306 357.9124 149.7426 354.2324 147.9206 350.3224 150.2606 347.6404 152.7346L347.6404 172.0286C347.7184 173.5366 347.5824 173.4606 348.7864 174.0786 349.8504 174.5506 349.2984 174.4126 351.7084 174.5266L351.7084 176.3746 335.9804 176.3746 335.9804 174.5186C338.3864 174.4046 337.8404 174.5426 338.9024 174.0706 340.1064 173.4486 340.0424 173.5366 340.1204 172.0286L340.1204 129.7706C339.6744 127.8446 337.4284 127.9826 335.8804 127.7746 335.8964 127.0226 335.8804 126.1606 335.8804 126.1606 335.8804 126.1606 342.2604 125.2066 347.6424 123.0586L347.6424 149.2306C348.2964 149.9666 348.9924 149.0386 349.6624 148.5426 353.4244 145.7546 357.8444 143.5226 362.7604 144.7266 364.6524 145.3786 366.8524 146.7566 367.5724 148.8186 368.8464 152.6506 368.4664 156.6866 368.4324 160.8486 368.3984 164.9886 368.2524 170.3186 368.5724 171.9766M177.092 145.252L177.092 153.212C175.998 153.232 176.048 153.284 175.36 153.212 174.74 150.394 172.506 147.404 169.582 146.544 167.762 146.132 165.698 146.302 164.288 147.472 161.686 149.668 162.112 152.514 164.84 154.21 169.756 157.788 179.004 159.576 178.488 167.654 178.214 171.298 175.466 175.044 171.958 176.286 167.316 178.072 161.046 176.988 156.542 175.648 156.542 175.648 156.504 170.264 156.542 167.742 157.602 167.79 157.538 167.848 158.412 167.794 158.728 168.612 160.214 175.948 167.968 175.048 169.776 174.774 171.354 173.952 172.06 172.574 172.682 171.368 172.978 168.69 169.534 166.722 163.794 163.442 157.828 161.89 156.522 155.52 156.074 152.218 156.898 149.196 159.27 146.928 164.002 142.824 171.398 143.82 177.092 145.252M28.383 170.5606C28.305 172.0706 28.367 173.0966 27.165 173.7146 26.101 174.1846 26.653 174.0506 24.243 174.1666L24.243 176.0926 39.971 176.0926 39.971 174.1746C37.565 174.0586 38.111 174.1946 37.049 173.7226 35.845 173.1026 35.903 172.0766 35.827 170.5666 35.827 170.5666 35.815 123.9946 35.827 122.6986 30.441 124.8466 24.139 125.8006 24.139 125.8006 24.139 125.8006 24.153 126.6626 24.139 127.4186 25.685 127.6226 27.931 127.4846 28.379 129.4106L28.383 170.5606z"/>
    <path fill="#1A1A1A" d="M252.4182 174.5722C246.7902 174.5722 244.4602 167.9502 244.4602 160.0402 244.4602 152.1302 246.7902 145.7122 252.4182 145.7122 258.0442 145.7122 260.3762 152.1282 260.3762 160.0402 260.3762 167.9502 258.0462 174.5722 252.4182 174.5722M267.0762 152.4222C263.9122 145.9942 257.4142 142.8982 250.4002 143.4162 245.4502 143.9322 240.6022 146.9562 238.2662 151.6662 235.8222 156.7202 235.0662 163.8702 237.8842 168.9942 240.2922 173.5302 245.0382 176.0762 249.8522 176.6622 256.3502 177.6242 262.4682 175.4262 266.1142 169.9242 269.3102 165.1442 269.8622 157.5462 267.0762 152.4222M372.4162 148.0234C372.4002 149.3114 372.4242 149.7934 372.4162 149.7154 374.2342 149.6774 376.1542 149.8374 376.1802 153.4054 376.1942 155.6354 376.2082 164.0634 376.1802 167.1174 376.1522 170.1714 377.0442 173.7134 380.2202 175.6874 386.0642 178.5414 391.9462 175.1714 396.6202 172.0754 397.1702 173.4514 397.2542 173.9774 397.8582 176.3394L408.3822 173.4354C408.3822 173.4354 408.4062 172.8934 408.4082 171.9454 406.0922 172.6934 404.6902 172.1574 404.6262 170.2854L404.6262 144.3914C400.4562 145.8294 396.5202 147.1954 392.9202 147.8274 392.9042 149.1174 392.9262 149.5994 392.9202 149.5214 396.0242 149.4554 396.7682 150.8134 396.7882 153.2614L396.7882 169.4174C394.2082 171.5154 390.4682 172.7214 387.3382 171.6174 385.5162 170.8254 384.4102 168.6294 384.4242 167.1494L384.4242 144.5514C380.2502 145.9914 376.0182 147.3914 372.4162 148.0234M431.4786 144.2304L431.4786 152.1904C430.3806 152.2104 430.4326 152.2624 429.7446 152.1904 429.1246 149.3724 426.8886 146.3804 423.9686 145.5224 422.1466 145.1084 420.0826 145.2804 418.6746 146.4484 416.0686 148.6444 416.4886 151.4904 419.2226 153.1884 424.1386 156.7644 433.3886 158.5504 432.8726 166.6304 432.5986 170.2764 429.8486 174.0224 426.3426 175.2624 421.6986 177.0484 415.4266 175.9664 410.9226 174.6244 410.9226 174.6244 410.8866 169.2404 410.9226 166.7184 411.9826 166.7684 411.9206 166.8224 412.7926 166.7724 413.1106 167.5904 414.5986 174.9244 422.3526 174.0244 424.1586 173.7524 425.7366 172.9284 426.4426 171.5504 427.0646 170.3424 427.3586 167.6664 423.9166 165.7004 418.1766 162.4204 412.2106 160.8684 410.9026 154.4984 410.4566 151.1944 411.2826 148.1704 413.6526 145.9044 418.3846 141.8024 425.7826 142.7964 431.4786 144.2304M137.9982 86.4512L142.0022 86.4512C142.8682 86.4512 143.3802 86.0092 143.3802 85.3572 143.3802 84.7132 142.8682 84.2632 142.0022 84.2632L137.9982 84.2632 137.9982 86.4512zM141.7402 82.8492C142.6222 82.8492 143.1562 82.5152 143.1562 81.8372 143.1562 81.1732 142.6222 80.8292 141.7402 80.8292L137.9982 80.8292 137.9982 82.8492 141.7402 82.8492zM136.3222 79.3792L141.9202 79.3792C143.7602 79.3792 144.8062 80.1852 144.8062 81.6512 144.8062 82.6712 144.1402 83.2292 143.5582 83.4792 144.4142 83.7632 145.0702 84.4892 145.0702 85.5232 145.0702 87.0192 143.9282 87.9092 142.1222 87.9092L136.3222 87.9092 136.3222 79.3792z"/>
    <polygon fill="#1A1A1A" points="153.965 79.379 156.047 79.379 151.767 84.285 151.767 87.911 150.019 87.911 150.019 84.285 145.731 79.379 147.859 79.379 150.913 82.873"/>
    <path fill="#1A1A1A" d="M163.8126 84.4394L167.1506 84.4394 165.4886 81.1034 163.8126 84.4394zM166.4726 79.3794L170.7746 87.9094 168.8866 87.9094 167.9026 85.9234 163.0746 85.9234 162.0786 87.9094 160.2106 87.9094 164.5146 79.3794 166.4726 79.3794zM177.2854 83.289C178.2974 83.289 178.8894 82.835 178.8894 82.079 178.8894 81.305 178.2974 80.863 177.2854 80.863L173.7894 80.863 173.7894 83.289 177.2854 83.289zM173.7894 87.911L172.0454 87.911 172.0454 79.379 177.3794 79.379C179.3274 79.379 180.6114 80.305 180.6114 82.079 180.6114 83.835 179.3274 84.775 177.3794 84.775L173.7894 84.775 173.7894 87.911zM187.3946 83.289C188.4046 83.289 189.0006 82.835 189.0006 82.079 189.0006 81.305 188.4046 80.863 187.3946 80.863L183.9006 80.863 183.9006 83.289 187.3946 83.289zM183.9006 87.911L182.1526 87.911 182.1526 79.379 187.4906 79.379C189.4386 79.379 190.7226 80.305 190.7226 82.079 190.7226 83.835 189.4386 84.775 187.4906 84.775L183.9006 84.775 183.9006 87.911zM193.5842 83.6466C193.5842 85.3666 194.9142 86.5086 196.8282 86.5086 198.7402 86.5086 200.0702 85.3666 200.0702 83.6466 200.0702 81.9246 198.7402 80.7806 196.8282 80.7806 194.9142 80.7806 193.5842 81.9246 193.5842 83.6466M201.8662 83.6466C201.8662 86.1786 199.7382 88.0406 196.8282 88.0406 193.9042 88.0406 191.7922 86.1786 191.7922 83.6466 191.7922 81.1126 193.9042 79.2486 196.8282 79.2486 199.7382 79.2486 201.8662 81.1126 201.8662 83.6466"/>
    <mask id="ibh_logo@3x-d" fill="#fff">
      <use xlink:href="#ibh_logo@3x-c"/>
    </mask>
    <polygon fill="#1A1A1A" points="203.48 87.91 205.226 87.91 205.226 79.378 203.48 79.378" mask="url(#ibh_logo@3x-d)"/>
    <polygon fill="#1A1A1A" points="216.11 87.91 214.568 87.91 208.992 81.602 208.992 87.91 207.306 87.91 207.306 79.378 209.088 79.378 214.41 85.404 214.41 79.378 216.11 79.378" mask="url(#ibh_logo@3x-d)"/>
    <polygon fill="#1A1A1A" points="223.176 80.887 223.176 87.911 221.418 87.911 221.418 80.887 217.652 80.887 217.652 79.379 226.946 79.379 226.946 80.887" mask="url(#ibh_logo@3x-d)"/>
    <polygon fill="#1A1A1A" points="233.299 87.91 230.197 81.04 230.197 87.91 228.499 87.91 228.499 79.378 231.159 79.378 234.025 85.774 236.887 79.378 239.513 79.378 239.513 87.91 237.803 87.91 237.803 81.04 234.711 87.91" mask="url(#ibh_logo@3x-d)"/>
    <polygon fill="#1A1A1A" points="249.86 79.379 249.86 80.887 243.322 80.887 243.322 82.789 249.182 82.789 249.182 84.285 243.322 84.285 243.322 86.403 249.86 86.403 249.86 87.911 241.6 87.911 241.6 79.379" mask="url(#ibh_logo@3x-d)"/>
    <polygon fill="#1A1A1A" points="260.373 87.91 258.827 87.91 253.255 81.602 253.255 87.91 251.567 87.91 251.567 79.378 253.351 79.378 258.673 85.404 258.673 79.378 260.373 79.378" mask="url(#ibh_logo@3x-d)"/>
    <polygon fill="#1A1A1A" points="267.444 80.887 267.444 87.911 265.682 87.911 265.682 80.887 261.916 80.887 261.916 79.379 271.208 79.379 271.208 80.887" mask="url(#ibh_logo@3x-d)"/>
    <polygon fill="#1A1A1A" points="281.529 80.887 281.529 87.911 279.771 87.911 279.771 80.887 276.003 80.887 276.003 79.379 285.299 79.379 285.299 80.887" mask="url(#ibh_logo@3x-d)"/>
    <path fill="#1A1A1A" d="M288.172,83.6466 C288.172,85.3666 289.502,86.5086 291.414,86.5086 C293.328,86.5086 294.658,85.3666 294.658,83.6466 C294.658,81.9246 293.328,80.7806 291.414,80.7806 C289.502,80.7806 288.172,81.9246 288.172,83.6466 M296.456,83.6466 C296.456,86.1786 294.328,88.0406 291.414,88.0406 C288.49,88.0406 286.378,86.1786 286.378,83.6466 C286.378,81.1126 288.49,79.2486 291.414,79.2486 C294.328,79.2486 296.456,81.1126 296.456,83.6466" mask="url(#ibh_logo@3x-d)"/>
    <polygon fill="#1A1A1A" points="73.563 93.898 73.563 102.43 71.805 102.43 71.805 98.804 66.327 98.804 66.327 102.43 64.581 102.43 64.581 93.898 66.327 93.898 66.327 97.296 71.805 97.296 71.805 93.898" mask="url(#ibh_logo@3x-d)"/>
    <polygon fill="#1A1A1A" points="83.899 93.898 83.899 95.406 77.363 95.406 77.363 97.31 83.221 97.31 83.221 98.804 77.363 98.804 77.363 100.922 83.899 100.922 83.899 102.43 75.641 102.43 75.641 93.898" mask="url(#ibh_logo@3x-d)"/>
    <path fill="#1A1A1A" d="M90.8732,97.797 C91.8932,97.797 92.4772,97.355 92.4772,96.597 C92.4772,95.825 91.8932,95.385 90.8732,95.385 L87.3532,95.385 L87.3532,97.797 L90.8732,97.797 Z M87.3532,102.429 L85.6072,102.429 L85.6072,93.899 L90.9652,93.899 C92.9052,93.899 94.2092,94.825 94.2092,96.583 C94.2092,97.893 93.4512,98.757 92.2392,99.093 L94.4132,102.429 L92.4052,102.429 L90.3952,99.259 L87.3532,99.259 L87.3532,102.429 Z" mask="url(#ibh_logo@3x-d)"/>
    <polygon fill="#1A1A1A" points="104.377 102.43 101.277 95.562 101.277 102.43 99.577 102.43 99.577 93.898 102.239 93.898 105.103 100.294 107.965 93.898 110.595 93.898 110.595 102.43 108.883 102.43 108.883 95.562 105.791 102.43" mask="url(#ibh_logo@3x-d)"/>
    <path fill="#1A1A1A" d="M115.4494 98.959L118.7894 98.959 117.1254 95.623 115.4494 98.959zM118.1134 93.899L122.4114 102.429 120.5234 102.429 119.5354 100.445 114.7134 100.445 113.7154 102.429 111.8474 102.429 116.1514 93.899 118.1134 93.899zM126.961 102.5606C125.021 102.5606 123.431 101.5266 122.933 100.0786L124.525 99.1766C124.785 100.1966 125.723 101.0266 126.971 101.0266 128.339 101.0266 129.193 100.3526 129.193 99.0946L129.193 93.8986 130.941 93.8986 130.941 99.1766C130.941 101.2066 129.347 102.5606 126.961 102.5606" mask="url(#ibh_logo@3x-d)"/>
    <polygon fill="#1A1A1A" points="141.053 93.898 141.053 95.406 134.515 95.406 134.515 97.31 140.375 97.31 140.375 98.804 134.515 98.804 134.515 100.922 141.053 100.922 141.053 102.43 132.793 102.43 132.793 93.898" mask="url(#ibh_logo@3x-d)"/>
    <path fill="#1A1A1A" d="M143.045,99.3516 C144.019,100.6616 145.565,101.0636 146.827,101.0636 C148.251,101.0636 149.261,100.6356 149.261,99.9476 C149.261,99.1416 148.561,99.0676 146.159,98.8056 C144.069,98.5676 142.463,98.1756 142.463,96.4896 C142.463,94.8736 144.043,93.7676 146.467,93.7676 C148.369,93.7676 150.083,94.4456 150.855,95.4696 L149.689,96.5816 C149.035,95.7416 147.823,95.2516 146.375,95.2516 C144.853,95.2516 144.163,95.7416 144.163,96.3096 C144.163,96.9276 144.735,97.0716 146.895,97.3196 C149.321,97.5936 151.029,97.9156 151.029,99.7596 C151.029,101.6236 149.167,102.5596 146.753,102.5596 C144.721,102.5596 142.703,101.7776 141.867,100.5776 L143.045,99.3516 Z" mask="url(#ibh_logo@3x-d)"/>
    <polygon fill="#1A1A1A" points="157.563 95.406 157.563 102.43 155.805 102.43 155.805 95.406 152.039 95.406 152.039 93.898 161.333 93.898 161.333 95.406" mask="url(#ibh_logo@3x-d)"/>
    <polygon fill="#1A1A1A" points="170.252 93.898 172.33 93.898 168.052 98.804 168.052 102.43 166.308 102.43 166.308 98.804 162.018 93.898 164.142 93.898 167.198 97.392" mask="url(#ibh_logo@3x-d)"/>
    <polygon fill="#1A1A1A" points="182.324 95.406 182.324 102.43 180.562 102.43 180.562 95.406 176.796 95.406 176.796 93.898 186.088 93.898 186.088 95.406" mask="url(#ibh_logo@3x-d)"/>
    <polygon fill="#1A1A1A" points="196.627 93.898 196.627 102.43 194.869 102.43 194.869 98.804 189.387 98.804 189.387 102.43 187.643 102.43 187.643 93.898 189.387 93.898 189.387 97.296 194.869 97.296 194.869 93.898" mask="url(#ibh_logo@3x-d)"/>
    <polygon fill="#1A1A1A" points="206.961 93.898 206.961 95.406 200.427 95.406 200.427 97.31 206.285 97.31 206.285 98.804 200.427 98.804 200.427 100.922 206.961 100.922 206.961 102.43 198.703 102.43 198.703 93.898" mask="url(#ibh_logo@3x-d)"/>
    <path fill="#1A1A1A" d="M213.7658 98.166C213.7658 99.888 215.0958 101.028 217.0098 101.028 218.9218 101.028 220.2518 99.888 220.2518 98.166 220.2518 96.444 218.9218 95.3 217.0098 95.3 215.0958 95.3 213.7658 96.444 213.7658 98.166M218.8158 102.3C218.2698 102.466 217.6538 102.56 217.0098 102.56 214.0858 102.56 211.9738 100.698 211.9738 98.166 211.9738 95.634 214.0858 93.768 217.0098 93.768 219.9218 93.768 222.0498 95.634 222.0498 98.166 222.0498 99.578 221.3838 100.78 220.3038 101.564 220.6598 101.966 221.1818 102.242 221.8598 102.394L220.8958 103.656C220.0778 103.442 219.2438 102.906 218.8158 102.3M223.424 98.4024L223.424 93.8984 225.172 93.8984 225.172 98.3064C225.172 99.9144 225.86 101.0184 227.808 101.0184 229.746 101.0184 230.436 99.9144 230.436 98.3064L230.436 93.8984 232.196 93.8984 232.196 98.4024C232.196 100.8884 230.794 102.5484 227.808 102.5484 224.816 102.5484 223.424 100.8884 223.424 98.4024" mask="url(#ibh_logo@3x-d)"/>
    <polygon fill="#1A1A1A" points="242.307 93.898 242.307 95.406 235.767 95.406 235.767 97.31 241.625 97.31 241.625 98.804 235.767 98.804 235.767 100.922 242.307 100.922 242.307 102.43 234.045 102.43 234.045 93.898" mask="url(#ibh_logo@3x-d)"/>
    <polygon fill="#1A1A1A" points="252.274 93.898 252.274 95.406 245.734 95.406 245.734 97.31 251.592 97.31 251.592 98.804 245.734 98.804 245.734 100.922 252.274 100.922 252.274 102.43 244.014 102.43 244.014 93.898" mask="url(#ibh_logo@3x-d)"/>
    <polygon fill="#1A1A1A" points="262.787 102.43 261.241 102.43 255.665 96.122 255.665 102.43 253.981 102.43 253.981 93.898 255.763 93.898 261.085 99.924 261.085 93.898 262.787 93.898" mask="url(#ibh_logo@3x-d)"/>
    <path fill="#1A1A1A" d="M269.9592,98.166 C269.9592,99.888 271.2892,101.028 273.2032,101.028 C275.1152,101.028 276.4452,99.888 276.4452,98.166 C276.4452,96.444 275.1152,95.3 273.2032,95.3 C271.2892,95.3 269.9592,96.444 269.9592,98.166 M278.2412,98.166 C278.2412,100.698 276.1132,102.56 273.2032,102.56 C270.2792,102.56 268.1652,100.698 268.1652,98.166 C268.1652,95.634 270.2792,93.768 273.2032,93.768 C276.1132,93.768 278.2412,95.634 278.2412,98.166" mask="url(#ibh_logo@3x-d)"/>
    <polygon fill="#1A1A1A" points="279.854 102.43 279.854 93.898 287.98 93.898 287.98 95.406 281.576 95.406 281.576 97.538 287.306 97.538 287.306 99.046 281.576 99.046 281.576 102.43" mask="url(#ibh_logo@3x-d)"/>
    <path fill="#1A1A1A" d="M297.7364,100.9356 C299.6864,100.9356 300.8344,99.8416 300.8344,98.1656 C300.8344,96.4776 299.6864,95.3956 297.7364,95.3956 L295.0864,95.3956 L295.0864,100.9356 L297.7364,100.9356 Z M293.3724,93.8976 L297.7364,93.8976 C300.7284,93.8976 302.6184,95.5616 302.6184,98.1656 C302.6184,100.7676 300.7284,102.4296 297.7364,102.4296 L293.3724,102.4296 L293.3724,93.8976 Z" mask="url(#ibh_logo@3x-d)"/>
    <polygon fill="#1A1A1A" points="312.477 93.898 312.477 95.406 305.945 95.406 305.945 97.31 311.803 97.31 311.803 98.804 305.945 98.804 305.945 100.922 312.477 100.922 312.477 102.43 304.221 102.43 304.221 93.898" mask="url(#ibh_logo@3x-d)"/>
    <polygon fill="#1A1A1A" points="322.99 102.43 321.448 102.43 315.874 96.122 315.874 102.43 314.188 102.43 314.188 93.898 315.968 93.898 321.294 99.924 321.294 93.898 322.99 93.898" mask="url(#ibh_logo@3x-d)"/>
    <polygon fill="#1A1A1A" points="329.869 102.43 326.767 95.562 326.767 102.43 325.069 102.43 325.069 93.898 327.731 93.898 330.595 100.294 333.459 93.898 336.085 93.898 336.085 102.43 334.373 102.43 334.373 95.562 331.283 102.43" mask="url(#ibh_logo@3x-d)"/>
    <path fill="#1A1A1A" d="M340.9396 98.959L344.2816 98.959 342.6156 95.623 340.9396 98.959zM343.6036 93.899L347.9056 102.429 346.0136 102.429 345.0296 100.445 340.2036 100.445 339.2076 102.429 337.3416 102.429 341.6416 93.899 343.6036 93.899zM354.4396 97.797C355.4616 97.797 356.0436 97.355 356.0436 96.597 356.0436 95.825 355.4616 95.385 354.4396 95.385L350.9196 95.385 350.9196 97.797 354.4396 97.797zM350.9196 102.429L349.1736 102.429 349.1736 93.899 354.5316 93.899C356.4716 93.899 357.7756 94.825 357.7756 96.583 357.7756 97.893 357.0176 98.757 355.8056 99.093L357.9796 102.429 355.9716 102.429 353.9636 99.259 350.9196 99.259 350.9196 102.429z" mask="url(#ibh_logo@3x-d)"/>
    <polygon fill="#1A1A1A" points="361.111 97.984 365.903 93.898 368.361 93.898 363.997 97.512 368.635 102.43 366.329 102.43 362.715 98.58 361.111 99.914 361.111 102.43 359.365 102.43 359.365 93.898 361.111 93.898" mask="url(#ibh_logo@3x-d)"/>
  </g>
</svg>
